<?xml version="1.0" standalone="no"?>
<!DOCTYPE svg PUBLIC "-//W3C//DTD SVG 20010904//EN"
 "http://www.w3.org/TR/2001/REC-SVG-20010904/DTD/svg10.dtd">
<svg version="1.0" xmlns="http://www.w3.org/2000/svg"
 width="1280.000000pt" height="1169.000000pt" viewBox="0 0 1280.000000 1169.000000"
 preserveAspectRatio="xMidYMid meet">
<metadata>
Created by potrace 1.16, written by Peter Selinger 2001-2019
</metadata>
<g transform="translate(0.000000,1169.000000) scale(0.100000,-0.100000)"
fill="#000000" stroke="none">
<path d="M8702 8480 c-262 -71 -441 -305 -442 -578 0 -183 79 -412 210 -608
98 -146 196 -251 344 -370 93 -74 85 -76 195 35 187 186 335 450 408 731 34
127 36 294 6 387 -61 186 -197 328 -374 390 -102 36 -244 41 -347 13z m414
-106 c48 -23 116 -102 179 -208 37 -63 49 -92 40 -94 -21 -5 -210 77 -274 118
-102 66 -124 115 -73 162 45 42 75 47 128 22z"/>
<path d="M3865 7048 c-95 -35 -192 -112 -295 -235 -237 -285 -382 -562 -547
-1051 -47 -139 -87 -251 -89 -249 -4 4 7 254 30 677 8 146 18 354 22 462 7
211 4 228 -40 228 -49 0 -53 -13 -65 -215 -6 -104 -20 -327 -31 -495 -74
-1176 -93 -1511 -82 -1522 17 -17 93 -16 102 2 5 8 16 73 25 144 38 295 138
728 234 1016 107 319 217 550 371 780 245 365 402 454 538 305 117 -129 172
-437 143 -805 -25 -314 -83 -656 -117 -690 -10 -11 -107 -69 -214 -131 -288
-164 -387 -235 -520 -368 -171 -172 -243 -309 -244 -467 -1 -73 2 -85 29 -129
41 -66 89 -90 180 -89 153 1 356 108 526 277 222 221 399 545 497 910 l27 101
115 72 c63 40 115 72 117 70 1 -1 -4 -36 -13 -77 -20 -95 -15 -291 10 -364 22
-64 72 -138 107 -159 15 -9 49 -16 76 -16 96 0 184 75 345 292 l83 111 6 -94
c11 -162 60 -281 133 -325 49 -29 130 -25 194 11 64 35 160 134 239 247 l58
83 7 -80 c26 -311 254 -406 418 -173 28 40 59 100 72 138 21 67 22 68 62 74
74 12 162 64 231 137 69 74 100 122 91 145 -10 27 -33 13 -105 -66 -76 -84
-157 -140 -202 -140 l-26 0 5 98 c5 113 -7 184 -47 268 -35 75 -73 120 -122
144 -47 25 -83 25 -134 1 -74 -34 -115 -96 -129 -193 -8 -50 -80 -174 -212
-364 -68 -98 -160 -190 -201 -200 -61 -16 -98 34 -113 149 -26 209 69 596 162
662 49 34 77 17 92 -57 11 -51 56 -27 56 29 0 76 -56 133 -129 133 -140 0
-261 -139 -352 -400 -29 -85 -46 -112 -152 -252 -152 -202 -236 -278 -277
-253 -35 22 -51 153 -34 278 6 45 9 48 60 71 135 62 226 223 211 372 -14 136
-99 189 -214 133 -52 -25 -143 -127 -187 -208 -26 -49 -44 -68 -94 -101 -77
-49 -181 -104 -187 -98 -3 3 3 52 12 109 12 74 17 168 17 329 0 368 -39 593
-137 783 -35 69 -38 81 -28 104 6 14 10 27 9 28 -20 17 -46 23 -56 13 -8 -8
-21 -2 -48 22 -56 49 -110 70 -179 69 -33 0 -73 -5 -90 -11z m1099 -1158 c9
-22 16 -53 16 -69 0 -42 -25 -118 -53 -160 -25 -37 -109 -101 -132 -101 -23 0
25 241 62 314 24 48 33 56 63 56 23 0 31 -7 44 -40z m1234 -105 c56 -64 77
-135 77 -267 0 -58 -3 -109 -6 -113 -24 -23 -199 120 -199 163 0 10 11 36 26
57 36 53 30 97 -14 110 -26 7 -31 13 -26 30 14 46 34 65 68 65 28 0 42 -8 74
-45z m-99 -409 c18 -13 55 -33 82 -42 27 -10 49 -21 49 -24 0 -21 -67 -124
-101 -155 -50 -45 -86 -45 -109 0 -18 36 -18 130 -1 207 14 64 13 64 80 14z
m-2094 -204 c-47 -149 -162 -360 -283 -519 -112 -146 -279 -287 -371 -313
-121 -34 -178 13 -168 138 12 154 165 360 392 527 137 101 448 282 453 265 2
-6 -8 -50 -23 -98z"/>
<path d="M7983 6868 c-98 -15 -220 -83 -347 -192 -175 -150 -362 -438 -511
-788 l-72 -167 -6 187 c-15 435 -85 724 -210 861 -36 39 -109 81 -142 81 -64
0 -70 -39 -26 -163 89 -253 101 -653 46 -1502 -8 -126 -16 -250 -17 -275 l-3
-45 50 -3 c27 -2 88 4 135 14 l86 17 26 191 c36 257 84 416 213 711 141 322
301 588 444 738 200 210 365 264 427 140 16 -32 19 -60 18 -173 0 -143 -17
-253 -57 -368 l-21 -63 -174 -131 c-216 -163 -318 -260 -360 -347 -57 -115
-38 -219 48 -264 28 -15 49 -17 105 -13 138 10 315 128 439 293 109 143 207
364 250 563 3 16 46 60 118 122 124 106 262 242 332 328 73 90 160 247 93 169
-35 -42 -322 -297 -429 -382 l-98 -78 0 58 c-1 146 -53 328 -115 401 -58 67
-143 96 -242 80z m-79 -1050 c-56 -109 -262 -328 -309 -328 -14 0 -25 6 -25
13 0 30 69 127 139 196 68 69 199 166 209 157 2 -2 -4 -19 -14 -38z"/>
<path d="M9272 6053 c-37 -34 -109 -245 -143 -420 -10 -54 -19 -71 -67 -123
-60 -67 -142 -120 -184 -120 l-27 0 6 93 c17 260 -127 476 -286 429 -73 -23
-134 -108 -148 -209 -3 -27 -17 -62 -31 -81 -44 -57 -74 -158 -79 -262 -13
-246 96 -415 250 -386 89 17 190 130 238 268 23 64 25 66 62 72 55 9 135 49
185 91 23 20 42 33 42 28 0 -4 -11 -84 -25 -178 -29 -199 -42 -355 -29 -356 5
0 51 -3 101 -5 106 -5 93 -18 113 111 6 39 20 105 31 148 59 233 239 517 328
517 58 0 64 -66 21 -235 -16 -63 -26 -84 -48 -100 -70 -50 -164 -152 -192
-208 -34 -68 -37 -95 -15 -137 13 -24 22 -30 50 -30 18 0 45 4 60 10 66 25
187 192 236 326 28 75 41 89 180 182 115 77 134 102 99 125 -12 7 -41 -7 -118
-57 -56 -36 -104 -66 -105 -66 -1 0 2 35 7 78 10 93 -3 152 -44 194 -23 23
-37 28 -76 28 -114 0 -235 -107 -347 -305 l-28 -50 6 45 c3 25 16 126 29 225
39 287 42 332 21 355 -22 25 -47 25 -73 3z m-592 -260 c60 -61 84 -137 85
-270 0 -61 -3 -114 -6 -118 -23 -23 -199 119 -199 161 0 9 12 37 26 61 34 59
30 95 -14 108 -29 8 -32 13 -27 35 18 70 77 80 135 23z m-87 -420 c27 -18 66
-38 88 -44 21 -7 39 -14 39 -16 0 -19 -59 -112 -93 -148 -80 -83 -132 -51
-132 80 1 85 22 178 38 168 7 -4 34 -22 60 -40z"/>
<path d="M9043 4783 c-30 -6 -38 -76 -30 -273 7 -171 19 -261 43 -321 14 -33
21 -39 45 -39 35 0 45 19 65 132 17 99 57 488 51 495 -7 7 -146 12 -174 6z"/>
<path d="M6810 4700 c-104 -11 -128 -22 -134 -62 -3 -18 -7 -106 -8 -196 l-3
-164 28 -24 c36 -31 89 -32 118 -3 29 29 53 88 79 189 21 82 50 232 50 258 0
13 -14 13 -130 2z"/>
</g>
</svg>
